<?xml version="1.0" standalone="no"?>
<!DOCTYPE svg PUBLIC "-//W3C//DTD SVG 20010904//EN"
 "http://www.w3.org/TR/2001/REC-SVG-20010904/DTD/svg10.dtd">
<svg version="1.0" xmlns="http://www.w3.org/2000/svg"
 width="288.000000pt" height="267.000000pt" viewBox="0 0 288.000000 267.000000"
 preserveAspectRatio="xMidYMid meet">

<g transform="translate(0.000000,267.000000) scale(0.100000,-0.100000)"
fill="#000000" stroke="none">
<path d="M430 2330 c-69 -27 -139 -49 -157 -50 -32 0 -55 -16 -73 -51 -14 -25
19 -102 51 -119 13 -7 43 -10 73 -7 55 5 93 -7 100 -32 51 -174 57 -206 45
-243 -10 -32 -9 -41 5 -63 24 -37 61 -49 94 -30 54 29 96 47 121 49 13 2 37
17 53 35 15 17 37 31 49 31 46 0 103 26 150 67 48 44 48 44 74 27 24 -16 37
-16 122 -6 52 6 100 15 107 21 7 6 16 8 20 4 3 -4 64 -10 134 -15 70 -4 179
-11 242 -15 63 -4 149 -7 190 -8 60 0 78 -4 90 -18 9 -11 38 -21 75 -27 33 -5
77 -14 98 -20 24 -7 43 -8 55 -1 12 7 26 4 49 -10 49 -30 172 -69 219 -69 34
0 47 5 63 26 28 36 27 75 -4 104 -28 26 -25 40 10 40 14 0 31 10 42 26 10 14
29 39 42 56 13 16 24 43 24 59 0 36 -35 76 -75 85 -17 3 -56 17 -87 31 -46 21
-67 24 -117 20 -60 -4 -62 -4 -88 29 -21 27 -34 34 -61 34 -18 0 -46 5 -62 11
-31 12 -35 12 -188 33 -60 9 -123 19 -140 22 -38 9 -141 13 -315 13 -123 0
-139 -2 -178 -24 l-42 -24 -26 26 c-22 22 -31 24 -62 19 -20 -4 -70 -11 -110
-15 -76 -9 -132 -38 -173 -89 -10 -14 -19 -20 -19 -14 0 20 -74 84 -125 108
-81 38 -145 32 -295 -26z m293 9 c62 -31 97 -68 97 -101 0 -15 4 -28 10 -28 5
0 37 25 71 55 34 31 71 57 83 59 103 19 199 26 212 15 18 -15 18 -44 -1 -63
-9 -9 -15 -32 -14 -63 0 -26 3 -41 6 -33 27 74 59 123 92 145 35 21 49 24 177
25 76 1 171 -1 209 -3 75 -4 320 -36 345 -45 8 -3 21 -4 29 -3 7 1 31 -5 52
-13 22 -9 55 -16 74 -16 28 0 38 -5 47 -25 12 -27 -2 -75 -21 -75 -5 0 -4 12
4 26 7 15 11 33 8 40 -6 15 -39 28 -52 20 -5 -3 -30 2 -55 11 -38 14 -50 15
-66 5 -16 -10 -20 -10 -20 1 0 10 -35 19 -117 32 -131 20 -168 23 -398 31
-154 5 -161 4 -200 -18 -26 -16 -48 -39 -62 -68 -34 -71 -37 -102 -15 -153 31
-70 57 -82 187 -83 60 -1 117 -4 125 -7 8 -3 89 -11 179 -17 179 -13 196 -9
167 34 -20 32 -22 86 -1 86 8 0 23 -9 34 -21 29 -32 55 -21 61 25 4 28 11 41
27 47 15 6 23 3 27 -8 9 -23 -22 -104 -51 -135 -40 -42 -29 -59 57 -79 97 -23
111 -23 117 1 3 11 6 20 8 20 1 0 18 -15 37 -32 39 -37 187 -93 228 -87 20 3
25 10 25 34 0 28 -4 31 -64 52 -35 12 -68 26 -74 32 -5 5 -10 34 -11 64 -1 60
20 97 56 97 25 0 71 -47 64 -65 -10 -27 5 -45 38 -45 28 0 37 7 66 51 24 37
30 53 21 62 -10 10 -86 42 -167 69 -51 17 -101 2 -155 -49 -52 -48 -75 -98
-65 -144 l5 -28 -20 20 c-20 20 -20 22 -3 100 9 43 20 79 25 79 4 0 3 -15 -2
-32 -5 -18 -9 -34 -9 -36 0 -2 21 17 48 43 26 26 58 51 71 56 45 18 105 11
181 -19 41 -16 83 -32 93 -35 26 -9 20 -47 -17 -97 -25 -35 -40 -46 -65 -48
-42 -4 -61 12 -61 53 0 23 -6 35 -25 45 -38 20 -65 -9 -65 -70 0 -55 15 -73
75 -89 77 -20 105 -59 69 -95 -8 -9 -28 -16 -44 -16 -37 0 -181 52 -219 79
-21 15 -32 18 -37 10 -7 -11 -15 -11 -143 9 -81 13 -99 53 -45 103 13 12 24
30 24 38 0 9 7 28 14 43 9 16 11 30 5 33 -16 10 -29 -5 -29 -34 0 -15 -5 -32
-12 -39 -19 -19 -56 -14 -68 8 -6 11 -15 18 -21 15 -14 -9 -11 -41 6 -55 19
-16 19 -44 1 -59 -11 -9 -54 -10 -183 -1 -92 6 -174 14 -182 16 -8 3 -65 6
-126 7 -78 1 -117 6 -129 16 -14 12 -19 11 -34 -2 -10 -10 -43 -18 -77 -21
l-60 -6 65 13 c56 10 65 15 68 35 3 17 -2 25 -17 29 -23 6 -25 11 -42 116 -13
75 -12 78 9 93 48 33 18 67 -48 53 -25 -5 -71 -11 -102 -14 -51 -6 -63 -12
-107 -53 -28 -26 -58 -52 -68 -58 -10 -6 -25 -29 -33 -51 -25 -65 -47 -90
-110 -124 -33 -18 -60 -39 -60 -47 0 -19 29 -52 45 -52 21 0 38 -28 31 -53 -4
-17 -17 -27 -48 -36 -24 -7 -64 -24 -89 -38 -73 -39 -112 -16 -84 49 12 31 10
43 -23 157 -23 78 -42 125 -52 129 -8 3 -23 12 -33 20 -14 12 -22 13 -43 4
-43 -20 -80 -15 -103 14 -40 51 -19 94 46 94 16 0 64 14 108 31 193 76 232 81
318 38z m706 -93 c7 -5 17 -20 22 -33 16 -42 73 -23 83 28 5 25 9 29 20 20 9
-8 12 -32 10 -86 -4 -91 -7 -97 -40 -85 -14 6 -43 7 -64 4 -60 -10 -87 1 -110
46 -25 49 -25 85 -1 109 20 20 52 19 80 -3z m315 -35 c-20 -126 -25 -141 -46
-141 -20 0 -21 4 -15 86 4 67 9 88 23 99 28 20 46 0 38 -44z m180 11 c15 -18
15 -20 -4 -37 -24 -22 -50 -13 -50 18 0 41 25 50 54 19z m-1074 -110 c0 -56
-15 -112 -32 -124 -7 -4 -23 -8 -34 -8 -25 0 -39 -37 -22 -57 14 -18 46 -16
93 6 56 25 100 79 120 146 12 43 20 55 31 51 9 -3 24 -6 35 -6 25 0 27 -57 2
-76 -23 -16 -8 -45 28 -55 l24 -7 -24 -1 c-26 -1 -61 24 -61 44 0 7 9 20 20
30 11 10 20 27 20 37 0 15 -6 19 -27 16 -23 -3 -30 -11 -42 -53 -20 -62 -72
-117 -133 -140 -76 -28 -118 -7 -104 50 5 18 15 27 36 32 44 8 53 27 54 103 1
37 4 66 9 63 4 -2 7 -25 7 -51z m1520 -88 c0 -14 5 -34 10 -45 11 -20 4 -24
-24 -13 -22 8 -23 84 -1 84 9 0 15 -10 15 -26z m-1655 -63 c-3 -6 -11 -11 -17
-11 -6 0 -6 6 2 15 14 17 26 13 15 -4z"/>
<path d="M445 2300 c-72 -28 -144 -50 -162 -50 -17 0 -35 -5 -38 -11 -12 -19
16 -69 43 -76 23 -5 36 -2 95 22 12 5 17 3 17 -8 0 -8 13 -19 28 -25 26 -9 31
-21 66 -141 32 -110 37 -136 27 -157 -29 -64 -3 -76 81 -36 35 16 76 35 91 41
38 15 32 41 -13 62 -27 13 -36 24 -40 50 -5 33 -3 35 50 60 87 42 120 91 120
180 0 47 -27 81 -92 113 -76 38 -120 34 -273 -24z m180 -50 c25 -9 55 -61 55
-94 0 -20 -40 -63 -66 -71 -19 -5 -23 0 -34 46 -11 44 -10 53 3 66 11 12 13
22 6 39 -10 27 -4 29 36 14z"/>
<path d="M602 2207 c-14 -39 -15 -76 -3 -96 8 -12 13 -12 35 3 34 22 39 75 9
109 -22 24 -27 22 -41 -16z m25 -69 c-3 -8 -6 -5 -6 6 -1 11 2 17 5 13 3 -3 4
-12 1 -19z"/>
<path d="M1352 2238 c-7 -7 -12 -21 -12 -31 0 -29 41 -97 59 -98 9 -1 44 -2
78 -3 55 -1 63 1 63 17 0 10 5 27 11 38 5 11 7 28 4 39 -6 19 -6 19 -26 -1
-10 -10 -32 -19 -48 -19 -23 0 -34 8 -50 35 -21 37 -55 47 -79 23z m48 -47 c0
-5 12 -23 26 -40 l26 -31 -26 0 c-18 0 -30 9 -41 30 -15 30 -13 50 6 50 5 0 9
-4 9 -9z"/>
<path d="M1714 2242 c-13 -8 -26 -152 -14 -152 12 0 19 25 26 95 7 67 6 70
-12 57z"/>
<path d="M1886 2213 c-4 -9 -4 -18 -2 -21 8 -7 36 6 36 17 0 16 -28 20 -34 4z"/>
<path d="M1272 1895 c-127 -36 -212 -117 -291 -282 -42 -85 -67 -123 -120
-178 -105 -109 -142 -171 -148 -249 -9 -104 21 -148 145 -219 l57 -32 -38 -3
c-24 -2 -48 3 -65 14 -26 17 -26 17 -12 -1 14 -17 13 -18 -13 -13 -17 3 -25 2
-19 -4 5 -5 64 -10 131 -11 121 -2 123 -2 145 -29 12 -16 26 -28 31 -28 4 0
-2 11 -15 25 -13 14 -19 25 -13 25 6 0 16 -7 23 -15 16 -19 34 -19 50 0 7 9
15 13 18 10 3 -3 -3 -14 -13 -25 -10 -11 -13 -20 -7 -20 6 0 16 9 22 20 14 26
30 26 30 1 0 -24 -52 -66 -106 -85 l-39 -14 28 -7 c38 -10 98 9 131 41 31 31
39 27 86 -46 17 -26 41 -51 53 -54 37 -10 44 -6 12 8 -40 17 -110 132 -94 153
8 9 23 11 48 7 46 -8 75 -32 60 -50 -8 -10 -2 -11 29 -7 22 3 49 0 61 -6 12
-7 31 -9 43 -5 l21 6 -22 13 -23 12 30 21 c37 27 83 28 106 4 15 -18 15 -20
-5 -38 -11 -10 -27 -34 -35 -53 -8 -19 -22 -40 -32 -47 -16 -13 -16 -14 0 -8
9 3 31 30 48 60 30 53 43 64 55 44 10 -16 76 -47 115 -54 l35 -7 -36 20 c-46
25 -62 46 -55 69 5 16 14 18 64 14 65 -5 139 14 192 48 19 12 27 19 16 16 -10
-4 -34 -3 -53 0 l-35 7 54 28 c128 69 189 205 143 317 -23 53 -50 78 -137 129
-76 43 -79 47 -114 121 -116 245 -247 360 -418 369 -43 2 -92 -3 -124 -12z
m199 -105 c4 -14 7 -19 8 -12 1 6 10 12 21 12 15 0 20 -7 20 -25 0 -20 -8 -29
-32 -40 -18 -7 -37 -11 -43 -8 -5 2 -2 -2 8 -10 19 -15 23 -52 7 -62 -5 -3
-10 -16 -9 -28 0 -19 1 -19 7 -4 7 16 11 15 41 -11 28 -23 33 -33 28 -54 -8
-29 -81 -78 -116 -78 -21 0 -61 51 -61 78 0 21 23 9 37 -19 7 -13 13 -19 13
-12 0 6 16 21 37 33 29 17 38 18 44 8 5 -7 9 -8 9 -3 0 28 -23 33 -58 13 -29
-16 -39 -18 -58 -8 -32 18 -39 9 -42 -56 -2 -32 -6 -62 -8 -66 -9 -14 -44 -9
-51 8 -4 11 -8 12 -13 4 -11 -18 -50 -2 -50 19 0 11 12 24 29 31 37 15 81 60
59 60 -8 0 -30 24 -49 52 -46 72 -45 121 2 160 24 21 44 28 74 28 44 0 62 -10
89 -50 16 -24 16 -24 16 24 0 39 3 47 17 44 9 -2 20 -14 24 -28z m115 -125 c4
-8 1 -22 -6 -30 -9 -10 -9 -15 -1 -15 6 0 11 -9 11 -20 0 -26 -20 -25 -64 1
-35 21 -47 39 -25 39 6 0 22 9 36 20 31 24 42 25 49 5z m-403 -25 c14 -11 29
-20 35 -20 14 0 43 -36 35 -43 -3 -4 -19 -7 -33 -7 -15 0 -33 -7 -40 -15 -16
-19 -49 -19 -56 0 -4 8 -1 22 6 30 10 12 10 18 0 30 -10 12 -10 18 0 30 16 20
22 19 53 -5z m447 -253 c20 -8 43 -24 53 -35 18 -19 17 -21 -17 -47 -38 -29
-100 -48 -128 -39 -43 13 3 44 64 44 30 0 68 23 68 42 0 5 -7 2 -16 -7 -11
-11 -26 -14 -49 -9 -25 4 -49 -1 -94 -22 -57 -25 -65 -26 -104 -15 -60 18
-157 71 -157 87 0 17 56 22 215 19 90 -2 141 -7 165 -18z m-372 -31 c29 -18
74 -41 100 -51 108 -39 100 -32 99 -85 -1 -69 12 -80 93 -80 43 0 71 5 78 13
6 7 12 39 14 71 3 50 6 59 30 74 15 9 30 13 34 9 4 -4 3 -36 -2 -72 -7 -45 -7
-66 0 -68 8 -3 7 -14 -1 -35 -6 -18 -7 -32 -3 -32 16 0 24 25 31 91 4 45 13
77 28 98 46 64 89 23 71 -66 -18 -94 -58 -183 -81 -183 -20 0 -29 -20 -29 -61
0 -20 -5 -29 -16 -29 -13 0 -15 7 -11 38 3 20 3 29 1 20 -3 -11 -15 -18 -30
-18 -19 0 -26 -6 -31 -30 -9 -49 -35 -34 -56 33 -12 38 -24 57 -34 57 -14 0
-14 -2 0 -18 25 -27 22 -46 -5 -38 -13 3 -29 6 -35 6 -18 0 -16 48 2 52 10 2
7 7 -10 15 -23 10 -25 9 -19 -12 5 -19 0 -27 -25 -39 -16 -9 -36 -16 -44 -16
-25 0 -77 31 -77 46 0 19 27 29 43 16 9 -8 13 8 15 71 3 94 -10 137 -42 137
-11 0 -34 9 -51 20 -18 12 -47 20 -73 20 -44 0 -102 23 -102 40 0 10 54 38 75
39 6 1 34 -14 63 -33z m-109 -50 c7 -8 32 -18 57 -22 49 -7 50 -24 1 -25 l-32
-1 32 -9 c39 -11 49 -25 33 -44 -10 -13 -8 -15 15 -15 15 0 34 8 41 18 12 16
13 16 19 0 8 -20 30 -24 40 -7 4 6 -2 17 -14 25 -26 19 -27 34 -1 34 27 0 40
-30 39 -87 -1 -77 -7 -85 -95 -126 -38 -18 -46 -30 -54 -77 -4 -29 -10 -36
-33 -38 -18 -2 -29 2 -33 13 -6 14 -8 14 -19 -2 -11 -15 -14 -16 -18 -3 -6 21
-23 71 -33 95 -7 18 -6 19 11 5 10 -8 24 -28 31 -45 7 -16 13 -24 14 -16 0 7
-10 29 -21 48 -20 32 -20 35 -4 53 13 15 14 22 5 40 -7 12 -9 37 -5 59 3 20 1
49 -4 65 -6 15 -13 43 -15 62 -4 30 -2 33 13 24 10 -5 23 -16 30 -24z m-75
-22 c18 -17 22 -69 6 -79 -5 -3 -10 -15 -10 -26 0 -11 -4 -18 -8 -15 -12 7 -1
-67 12 -83 6 -8 11 -24 12 -35 1 -12 5 -29 9 -38 5 -13 3 -18 -8 -18 -9 0 -21
8 -26 18 -9 15 -11 14 -12 -8 -3 -42 1 -64 14 -72 7 -5 2 -8 -14 -8 -23 0 -25
4 -28 44 -1 27 4 49 12 58 11 11 12 27 6 73 -17 131 -19 178 -8 192 15 17 24
16 43 -3z m21 -167 c0 -39 -19 -38 -23 2 -3 24 0 32 10 29 7 -3 13 -17 13 -31z
m705 -117 c0 -61 -16 -66 -22 -7 -5 45 -2 57 13 57 5 0 9 -22 9 -50z m-475 19
c4 -11 5 -21 3 -22 -1 -1 -18 -10 -36 -19 -41 -22 -52 -22 -52 -3 0 20 44 65
64 65 8 0 18 -9 21 -21z m104 -87 c-16 -2 -43 -2 -60 0 l-32 3 39 26 39 26 22
-26 21 -26 -29 -3z m247 14 c7 -31 -8 -108 -23 -113 -20 -7 -29 48 -9 59 9 5
16 14 16 21 0 9 -3 8 -8 -1 -7 -10 -47 -11 -198 -4 l-189 9 188 1 c174 2 187
3 187 20 0 38 27 44 36 8z m183 -22 c2 -2 1 -9 -2 -17 -6 -17 -90 -30 -135
-21 -35 7 -45 39 -14 48 17 5 144 -3 151 -10z m51 -2 c0 -13 -12 -22 -22 -16
-10 6 -1 24 13 24 5 0 9 -4 9 -8z m-800 -22 c0 -5 -6 -10 -14 -10 -8 0 -18 5
-21 10 -3 6 3 10 14 10 12 0 21 -4 21 -10z m345 -10 c35 0 38 -2 24 -15 -26
-26 -85 -30 -116 -9 -16 11 -41 22 -58 26 -16 4 2 5 40 3 39 -3 88 -5 110 -5z"/>
<path d="M1370 1701 c0 -12 29 -23 41 -15 5 3 7 10 4 15 -8 12 -45 12 -45 0z"/>
<path d="M1302 1658 c-15 -15 -16 -38 -2 -38 12 0 23 25 18 40 -2 7 -7 7 -16
-2z"/>
<path d="M1366 1652 c-8 -13 11 -35 23 -28 6 4 11 11 11 16 0 11 -28 21 -34
12z"/>
<path d="M1773 1238 c-12 -26 -18 -50 -13 -57 5 -8 10 0 14 22 4 20 12 37 17
39 6 2 10 12 8 22 -3 13 -10 6 -26 -26z"/>
<path d="M1710 1059 c-7 -11 -9 -23 -6 -27 3 -3 6 0 6 6 0 6 7 18 16 26 8 9
11 16 5 16 -6 0 -15 -9 -21 -21z"/>
<path d="M1193 1232 c-9 -6 -8 -11 5 -19 15 -9 18 -7 18 8 0 21 -5 23 -23 11z"/>
<path d="M1285 1159 c-17 -4 -44 -23 -60 -41 -17 -18 -21 -25 -10 -16 12 10
50 29 85 42 63 24 52 35 -15 15z"/>
<path d="M1046 1227 c3 -10 9 -15 12 -12 3 3 0 11 -7 18 -10 9 -11 8 -5 -6z"/>
<path d="M2078 1778 c3 -14 2 -19 -6 -14 -7 4 -12 3 -12 -3 0 -5 6 -12 13 -14
7 -3 5 -6 -5 -6 -9 -1 -22 7 -27 17 -9 14 -10 15 -11 1 0 -9 -9 -24 -20 -34
-11 -10 -20 -25 -19 -34 0 -13 2 -14 6 -1 11 26 31 40 57 40 21 0 26 -5 26
-24 0 -13 -6 -27 -12 -29 -10 -4 -10 -6 0 -6 6 -1 12 -10 12 -21 0 -23 10 -26
29 -7 10 10 16 7 31 -13 14 -19 22 -22 30 -14 9 9 9 17 1 33 -10 18 -9 21 9
21 11 0 20 4 20 8 0 9 -113 122 -122 122 -3 0 -4 -10 0 -22z m92 -96 c-14 -2
-20 -9 -16 -18 3 -8 9 -21 12 -29 11 -26 -12 -16 -25 11 -11 26 -12 26 -31 9
-20 -18 -20 -17 -20 56 l0 73 51 -49 c44 -44 48 -50 29 -53z"/>
<path d="M698 1752 c-16 -9 -28 -19 -28 -22 0 -3 22 -3 50 -2 29 2 50 0 50 -6
0 -5 8 -13 17 -16 14 -6 12 -2 -5 17 -12 13 -22 30 -22 38 -1 10 -3 9 -11 -3
-5 -10 -20 -17 -32 -17 -17 1 -18 2 -4 6 9 2 17 9 17 14 0 12 0 12 -32 -9z"/>
<path d="M708 1673 c7 -3 16 -2 19 1 4 3 -2 6 -13 5 -11 0 -14 -3 -6 -6z"/>
<path d="M645 1644 c-23 -36 -15 -37 13 -3 13 16 19 29 14 29 -5 0 -17 -12
-27 -26z"/>
<path d="M759 1638 c4 -28 5 -30 10 -11 5 18 9 20 22 10 9 -7 18 -19 22 -27 4
-10 6 -8 6 8 1 13 -5 22 -14 22 -9 0 -18 7 -21 15 -12 30 -31 16 -25 -17z"/>
<path d="M2006 1655 c-3 -8 -12 -15 -21 -15 -9 0 -15 -9 -14 -22 0 -16 2 -18
6 -8 4 8 13 20 22 27 13 10 17 8 22 -10 5 -19 6 -17 10 11 6 33 -13 47 -25 17z"/>
<path d="M775 1561 c4 -33 18 -51 41 -51 6 0 9 -14 8 -32 -2 -18 -1 -24 2 -13
3 11 13 25 21 32 13 10 10 13 -17 20 -18 5 -34 16 -36 25 -1 9 -7 24 -13 35
-8 15 -9 12 -6 -16z"/>
<path d="M2004 1568 c-5 -13 -8 -27 -9 -32 0 -6 -15 -14 -34 -18 -28 -8 -31
-11 -18 -21 9 -7 18 -23 21 -37 2 -14 4 -8 2 13 -1 20 3 37 9 37 21 0 36 18
40 48 5 37 0 41 -11 10z"/>
<path d="M665 1538 c-16 -18 -20 -24 -7 -13 27 23 28 15 1 -36 -11 -23 -18
-43 -16 -46 3 -2 8 5 12 18 6 17 9 19 17 8 7 -10 8 -8 5 9 -3 12 -2 22 1 22 4
0 13 12 20 27 24 53 11 57 -33 11z"/>
<path d="M2080 1562 c0 -14 25 -62 32 -62 3 0 4 -10 2 -22 -4 -21 -4 -21 5 -3
5 11 5 27 0 37 -15 28 -10 32 14 13 12 -10 8 -4 -10 13 -32 33 -43 38 -43 24z"/>
<path d="M602 1532 c-15 -33 -11 -36 11 -7 9 13 14 26 9 29 -4 2 -13 -7 -20
-22z"/>
<path d="M2167 1538 c9 -10 17 -18 19 -18 1 0 0 8 -3 18 -2 10 -11 19 -19 19
-11 0 -11 -4 3 -19z"/>
<path d="M702 1460 c0 -19 2 -27 5 -17 2 9 2 25 0 35 -3 9 -5 1 -5 -18z"/>
<path d="M2082 1460 c0 -19 2 -27 5 -17 2 9 2 25 0 35 -3 9 -5 1 -5 -18z"/>
<path d="M2130 1475 c0 -5 5 -17 10 -25 5 -8 10 -10 10 -5 0 6 -5 17 -10 25
-5 8 -10 11 -10 5z"/>
<path d="M567 1445 c-12 -14 -31 -40 -40 -58 -17 -31 -17 -31 0 -7 10 13 31
39 47 57 33 39 28 45 -7 8z"/>
<path d="M2215 1440 c17 -20 38 -47 48 -60 17 -24 17 -24 0 8 -10 18 -31 45
-47 60 l-30 27 29 -35z"/>
<path d="M712 1400 c0 -14 2 -19 5 -12 2 6 2 18 0 25 -3 6 -5 1 -5 -13z"/>
<path d="M768 1413 c7 -3 16 -2 19 1 4 3 -2 6 -13 5 -11 0 -14 -3 -6 -6z"/>
<path d="M1993 1413 c9 -2 23 -2 30 0 6 3 -1 5 -18 5 -16 0 -22 -2 -12 -5z"/>
<path d="M2072 1400 c0 -14 2 -19 5 -12 2 6 2 18 0 25 -3 6 -5 1 -5 -13z"/>
<path d="M621 1374 c0 -11 3 -14 6 -6 3 7 2 16 -1 19 -3 4 -6 -2 -5 -13z"/>
<path d="M2161 1374 c0 -11 3 -14 6 -6 3 7 2 16 -1 19 -3 4 -6 -2 -5 -13z"/>
<path d="M372 1355 c6 -14 15 -25 20 -25 5 0 6 -5 2 -12 -4 -7 -3 -8 4 -4 8 5
5 16 -10 37 -27 36 -31 37 -16 4z"/>
<path d="M2402 1351 c-15 -21 -18 -32 -10 -37 7 -4 8 -3 4 4 -4 7 -3 12 2 12
5 0 14 11 20 25 15 33 11 32 -16 -4z"/>
<path d="M721 1354 c0 -11 3 -14 6 -6 3 7 2 16 -1 19 -3 4 -6 -2 -5 -13z"/>
<path d="M490 1330 c-6 -11 -8 -20 -6 -20 3 0 10 9 16 20 6 11 8 20 6 20 -3 0
-10 -9 -16 -20z"/>
<path d="M2290 1330 c6 -11 13 -20 16 -20 2 0 0 9 -6 20 -6 11 -13 20 -16 20
-2 0 0 -9 6 -20z"/>
<path d="M610 1310 c0 -13 5 -18 15 -14 12 5 13 10 4 20 -15 19 -19 18 -19 -6z"/>
<path d="M2161 1316 c-9 -10 -8 -15 4 -20 10 -4 15 1 15 14 0 24 -4 25 -19 6z"/>
<path d="M445 1257 c21 -31 40 -55 43 -52 3 3 -2 13 -11 23 -21 23 -22 46 -3
39 8 -3 17 0 20 8 4 11 0 12 -17 6 -16 -7 -28 -3 -46 13 -18 15 -14 6 14 -37z"/>
<path d="M2357 1290 c-12 -17 -19 -19 -40 -11 -21 8 -25 7 -21 -4 3 -7 12 -11
20 -8 19 7 18 -16 -3 -39 -9 -10 -14 -20 -11 -23 3 -3 21 20 42 50 20 30 34
55 32 55 -3 0 -11 -9 -19 -20z"/>
<path d="M661 1283 c7 -12 15 -20 18 -17 3 2 -3 12 -13 22 -17 16 -18 16 -5
-5z"/>
<path d="M616 1271 c-4 -7 -5 -15 -2 -18 9 -9 19 4 14 18 -4 11 -6 11 -12 0z"/>
<path d="M2160 1266 c0 -9 5 -16 10 -16 6 0 10 4 10 9 0 6 -4 13 -10 16 -5 3
-10 -1 -10 -9z"/>
<path d="M426 1221 c-4 -6 -2 -11 4 -11 6 0 4 -7 -5 -17 -15 -15 -15 -17 -1
-25 9 -5 14 -13 11 -19 -4 -5 -1 -9 4 -9 14 0 14 13 -1 28 -16 16 -2 28 16 12
9 -6 21 -10 28 -7 8 4 7 6 -4 6 -10 1 -24 13 -31 27 -9 17 -17 23 -21 15z"/>
<path d="M622 1210 c0 -14 2 -19 5 -12 2 6 2 18 0 25 -3 6 -5 1 -5 -13z"/>
<path d="M2162 1210 c0 -14 2 -19 5 -12 2 6 2 18 0 25 -3 6 -5 1 -5 -13z"/>
<path d="M2342 1205 c-7 -14 -20 -25 -29 -26 -11 0 -13 -3 -5 -6 7 -3 19 1 28
7 18 16 32 4 16 -12 -15 -15 -15 -28 -1 -28 5 0 8 4 4 9 -3 6 2 14 11 19 14 8
14 10 0 25 -11 11 -12 17 -4 19 8 3 9 6 1 11 -5 3 -15 -5 -21 -18z"/>
<path d="M505 1200 c-4 -6 1 -7 11 -3 10 4 15 2 11 -3 -3 -5 3 -10 14 -10 19
0 19 1 3 13 -21 16 -31 16 -39 3z"/>
<path d="M2246 1197 c-16 -12 -16 -13 3 -13 11 0 17 5 14 10 -4 5 1 7 11 3 10
-4 15 -3 11 3 -8 13 -18 13 -39 -3z"/>
<path d="M558 1173 c-10 -2 -18 -9 -18 -14 0 -6 7 -6 18 0 13 7 23 6 32 -2 12
-10 12 -9 1 6 -7 9 -14 16 -15 16 0 -1 -9 -3 -18 -6z"/>
<path d="M2198 1161 c-10 -13 -10 -14 2 -4 9 8 19 9 32 2 10 -6 18 -6 18 -1 0
18 -39 20 -52 3z"/>
<path d="M396 1143 c-6 -14 -5 -15 5 -6 7 7 10 15 7 18 -3 3 -9 -2 -12 -12z"/>
<path d="M2380 1151 c0 -6 4 -13 10 -16 6 -3 7 1 4 9 -7 18 -14 21 -14 7z"/>
<path d="M510 1119 c0 -11 -5 -30 -11 -42 -9 -19 -7 -18 10 3 11 14 18 27 15
29 -2 2 3 9 12 15 13 10 13 12 -5 13 -15 1 -21 -4 -21 -18z"/>
<path d="M630 1131 c0 -6 4 -13 10 -16 6 -3 7 1 4 9 -7 18 -14 21 -14 7z"/>
<path d="M2146 1123 c-6 -14 -5 -15 5 -6 7 7 10 15 7 18 -3 3 -9 -2 -12 -12z"/>
<path d="M2254 1124 c9 -6 14 -13 12 -15 -3 -2 4 -15 15 -29 17 -21 19 -22 10
-3 -6 12 -11 31 -11 42 0 14 -6 19 -21 18 -18 -1 -18 -3 -5 -13z"/>
<path d="M588 1123 c7 -3 16 -2 19 1 4 3 -2 6 -13 5 -11 0 -14 -3 -6 -6z"/>
<path d="M2188 1123 c7 -3 16 -2 19 1 4 3 -2 6 -13 5 -11 0 -14 -3 -6 -6z"/>
<path d="M575 1090 c10 -11 20 -20 23 -20 3 0 -3 9 -13 20 -10 11 -20 20 -23
20 -3 0 3 -9 13 -20z"/>
<path d="M2204 1088 l-19 -23 23 19 c21 18 27 26 19 26 -2 0 -12 -10 -23 -22z"/>
<path d="M2104 1068 l-19 -23 23 19 c21 18 27 26 19 26 -2 0 -12 -10 -23 -22z"/>
<path d="M606 1062 c-3 -5 1 -15 9 -22 8 -7 15 -9 15 -4 0 4 16 -7 35 -26 19
-19 35 -32 35 -29 0 13 -88 90 -94 81z"/>
<path d="M2129 1022 c-30 -32 -33 -37 -8 -14 19 18 38 30 41 27 3 -3 11 1 17
9 7 8 8 17 3 20 -5 3 -29 -16 -53 -42z"/>
<path d="M528 1053 c7 -3 16 -2 19 1 4 3 -2 6 -13 5 -11 0 -14 -3 -6 -6z"/>
<path d="M2238 1053 c6 -2 18 -2 25 0 6 3 1 5 -13 5 -14 0 -19 -2 -12 -5z"/>
<path d="M483 1033 c0 -9 4 -10 14 -2 7 6 13 12 13 14 0 1 -6 2 -13 2 -8 0
-14 -6 -14 -14z"/>
<path d="M2280 1045 c0 -2 6 -8 13 -14 10 -8 14 -7 14 2 0 8 -6 14 -14 14 -7
0 -13 -1 -13 -2z"/>
<path d="M401 1019 c-1 -20 24 -43 38 -35 5 3 12 1 14 -4 3 -6 4 -5 3 2 -2 7
-11 12 -20 10 -9 -2 -20 7 -26 20 -6 15 -9 18 -9 7z"/>
<path d="M525 1019 c-11 -16 -1 -19 13 -3 7 8 8 14 3 14 -5 0 -13 -5 -16 -11z"/>
<path d="M2252 1016 c7 -8 15 -12 17 -11 5 6 -10 25 -20 25 -5 0 -4 -6 3 -14z"/>
<path d="M2377 1011 c-4 -16 -11 -22 -21 -18 -10 4 -20 -2 -27 -16 -7 -12 -8
-19 -4 -15 5 4 15 2 24 -4 13 -10 14 -10 4 2 -17 18 -16 31 0 24 17 -6 41 20
35 38 -3 7 -7 2 -11 -11z"/>
<path d="M2034 991 c-17 -16 -38 -31 -45 -33 -8 -3 -11 -8 -8 -12 3 -3 26 12
50 33 24 22 42 40 39 40 -3 0 -19 -12 -36 -28z"/>
<path d="M495 979 c-4 -6 -5 -12 -2 -15 2 -3 7 2 10 11 7 17 1 20 -8 4z"/>
<path d="M2282 976 c7 -8 15 -12 17 -11 5 6 -10 25 -20 25 -5 0 -4 -6 3 -14z"/>
<path d="M559 957 c8 -11 9 -17 3 -17 -6 0 -16 -18 -22 -40 -13 -48 -45 -56
-60 -15 -11 29 -30 33 -30 8 -1 -16 -2 -15 -12 2 -14 23 -38 49 -38 40 0 -10
43 -65 52 -65 4 0 8 8 8 18 0 12 4 10 13 -8 23 -45 77 -34 77 16 0 12 5 26 12
30 8 5 9 2 5 -10 -5 -13 -1 -19 13 -23 11 -3 20 -14 20 -24 0 -12 7 -19 19
-19 10 0 21 -9 24 -20 5 -18 13 -20 74 -18 l68 2 -67 3 c-39 2 -68 8 -68 15 0
5 7 7 16 4 10 -4 14 -1 12 6 -3 7 -19 14 -36 16 -37 4 -42 17 -9 26 18 5 20 8
7 16 -8 5 -27 7 -42 4 -32 -6 -35 -2 -13 19 13 13 11 17 -13 33 -24 15 -25 15
-13 1z"/>
<path d="M2210 950 c-14 -11 -20 -20 -14 -20 7 0 15 -7 18 -16 5 -13 1 -14
-22 -10 -15 3 -34 1 -42 -4 -13 -8 -11 -11 8 -16 32 -9 27 -22 -10 -26 -17 -2
-33 -9 -36 -16 -2 -7 2 -10 12 -6 9 3 16 1 16 -4 0 -7 -29 -13 -67 -15 l-68
-3 68 -2 c61 -2 69 0 74 18 3 11 14 20 24 20 12 0 19 7 19 19 0 10 9 21 20 24
15 4 18 10 13 24 -3 10 -2 14 3 10 4 -4 13 -22 19 -40 13 -41 53 -45 72 -7 9
18 13 20 13 8 0 -10 4 -18 8 -18 9 0 52 55 52 65 0 9 -24 -17 -38 -40 -10 -17
-11 -18 -12 -2 0 25 -19 21 -30 -8 -15 -41 -47 -33 -60 15 -6 22 -16 40 -22
40 -7 0 -6 5 2 15 17 20 10 19 -20 -5z"/>
<path d="M480 925 c0 -5 5 -17 10 -25 5 -8 10 -10 10 -5 0 6 -5 17 -10 25 -5
8 -10 11 -10 5z"/>
<path d="M2296 915 c-9 -26 -7 -32 5 -12 6 10 9 21 6 23 -2 3 -7 -2 -11 -11z"/>
<path d="M850 810 c8 -5 26 -10 39 -10 32 0 24 6 -19 14 -25 4 -31 3 -20 -4z"/>
<path d="M1925 810 c-3 -6 1 -7 9 -4 18 7 21 14 7 14 -6 0 -13 -4 -16 -10z"/>
<path d="M798 803 c6 -2 18 -2 25 0 6 3 1 5 -13 5 -14 0 -19 -2 -12 -5z"/>
<path d="M1888 803 c7 -3 16 -2 19 1 4 3 -2 6 -13 5 -11 0 -14 -3 -6 -6z"/>
<path d="M1968 803 c6 -2 18 -2 25 0 6 3 1 5 -13 5 -14 0 -19 -2 -12 -5z"/>
<path d="M313 780 c-83 -33 -41 -181 52 -184 24 0 47 -9 59 -20 17 -17 18 -28
12 -129 -5 -87 -11 -115 -26 -135 -27 -34 -25 -74 5 -102 24 -22 28 -23 89
-12 35 7 84 12 109 12 37 0 49 5 66 26 27 35 26 56 -4 92 -29 34 -27 37 33 47
l42 7 0 -40 c0 -69 15 -75 197 -76 131 -1 162 -4 183 -18 18 -12 58 -19 152
-24 l126 -7 27 27 27 27 358 0 c322 1 361 -1 384 -16 59 -39 200 -26 257 23
62 52 74 121 34 191 -18 31 -22 48 -15 55 17 17 11 89 -10 124 -20 32 -20 32
-103 32 -62 0 -92 -5 -121 -20 -38 -19 -39 -19 -55 2 -18 21 -9 20 -301 27 -8
0 -123 -2 -255 -4 l-240 -5 -59 -41 -59 -40 -31 30 c-49 47 -78 54 -250 56
-87 1 -161 6 -165 12 -3 5 -24 22 -45 38 -38 29 -38 30 -15 36 16 4 6 7 -31 9
-106 4 -146 4 -255 0 -60 -3 -119 -2 -130 2 -11 4 -30 3 -42 -2z m73 -21 c5
-2 73 0 151 5 130 7 146 6 187 -12 24 -11 59 -34 77 -51 31 -30 34 -31 133
-32 56 0 124 0 153 1 66 2 136 -28 161 -68 15 -26 21 -29 37 -19 11 6 26 16
32 23 7 7 28 22 48 34 33 20 49 22 254 25 121 2 223 5 228 7 4 2 77 1 162 -2
161 -5 160 -5 176 -54 5 -18 6 -18 28 2 34 31 86 49 153 51 69 2 79 -5 90 -63
6 -36 4 -42 -22 -63 -22 -17 -25 -23 -12 -23 10 0 29 -20 44 -45 21 -37 25
-53 19 -82 -9 -52 -54 -89 -122 -103 -67 -14 -113 -8 -152 19 -16 12 -40 22
-53 22 -18 1 -19 2 -5 6 10 3 42 -8 71 -23 45 -24 58 -26 107 -20 71 9 116 37
136 84 14 35 14 39 -6 78 -22 40 -38 51 -144 93 -15 6 -25 16 -22 21 10 17 55
11 87 -11 30 -22 30 -22 50 -2 16 16 18 26 11 54 -9 33 -10 34 -69 37 -77 4
-126 -11 -159 -50 -21 -25 -28 -29 -36 -17 -5 8 -9 24 -9 36 0 12 -5 25 -11
28 -6 4 -175 7 -375 6 -339 -1 -367 -2 -402 -20 -20 -11 -46 -28 -58 -39 -11
-11 -30 -23 -42 -26 -19 -6 -21 -13 -18 -60 5 -65 -4 -84 -27 -58 -16 17 -16
20 -2 32 21 17 19 79 -4 116 -27 45 -63 53 -248 57 l-163 3 -36 37 c-54 54
-79 58 -286 54 -178 -3 -183 -4 -186 -25 -2 -13 7 -32 22 -47 16 -16 20 -25
11 -25 -20 0 -45 40 -45 70 0 45 24 56 86 39z m277 -100 c31 -17 37 -28 37
-75 0 -47 -18 -68 -67 -79 l-33 -7 0 46 c0 33 6 52 21 67 12 12 19 29 16 40
-6 22 -3 23 26 8z m-213 -17 c0 -9 9 -23 21 -30 19 -12 20 -20 15 -75 -3 -34
-5 -92 -5 -129 -1 -57 -5 -71 -27 -97 -34 -41 -20 -64 35 -56 l36 4 -38 -10
c-65 -19 -87 19 -42 73 24 28 25 36 25 153 0 119 -1 125 -25 149 -13 13 -32
26 -42 29 -10 3 -3 5 15 6 24 1 32 -3 32 -17z m1146 -84 c-2 -44 27 -49 65
-12 l29 28 0 -85 c0 -74 -2 -86 -21 -97 -13 -8 -19 -21 -17 -35 3 -21 8 -22
98 -22 l95 0 3 33 c3 26 -1 35 -16 39 -16 4 -19 15 -21 70 -1 37 -4 70 -7 74
-10 18 32 -5 48 -25 15 -18 20 -19 38 -8 21 13 21 12 19 -50 -1 -46 -7 -68
-21 -81 -28 -27 -8 -57 40 -59 l37 -1 -33 -4 c-22 -3 -40 1 -52 12 -15 14 -18
14 -30 0 -18 -22 -182 -22 -200 0 -9 11 -16 13 -24 5 -19 -19 -29 -10 -10 11
18 20 18 21 -1 35 -10 8 -22 14 -27 14 -4 0 -8 43 -8 95 0 52 4 95 9 95 5 0 8
-14 7 -32z m493 18 c18 -22 2 -46 -30 -46 -24 0 -29 4 -29 23 0 13 3 27 7 30
11 12 40 8 52 -7z m-1109 -81 c0 -66 -3 -85 -14 -85 -10 0 -15 18 -18 62 -6
75 0 108 18 108 11 0 14 -19 14 -85z m148 53 c-5 -34 -38 -37 -38 -4 0 20 5
26 21 26 15 0 20 -5 17 -22z m1072 -36 c0 -10 11 -24 25 -32 l24 -15 -36 -29
c-32 -26 -45 -30 -102 -30 -65 -1 -66 0 -69 27 -4 32 20 37 50 10 28 -25 54
-5 51 40 -2 27 3 37 20 44 26 12 37 8 37 -15z m-1372 -34 c-1 -34 -8 -63 -19
-80 -22 -30 -24 -49 -7 -66 9 -9 9 -12 0 -12 -21 0 -26 50 -8 80 9 16 16 41
16 56 l0 27 -23 -21 c-13 -12 -38 -24 -57 -27 -35 -6 -35 -6 5 9 36 14 85 59
85 79 0 4 2 7 4 7 3 0 4 -24 4 -52z m610 -14 c29 -8 31 -58 2 -74 -25 -13 -26
-36 -2 -49 9 -6 11 -11 5 -11 -7 0 -13 -6 -13 -13 0 -8 -9 -22 -19 -31 -16
-15 -32 -17 -88 -12 -37 2 -89 5 -114 5 -48 0 -85 22 -76 45 15 36 16 47 2 24
-8 -16 -20 -28 -26 -28 -5 0 -2 11 6 24 15 23 15 25 -6 44 -11 11 -19 26 -17
32 2 7 19 -4 40 -25 30 -31 34 -41 26 -55 -21 -32 -2 -51 49 -51 27 0 79 -3
117 -6 59 -4 72 -2 83 12 17 24 -1 55 -32 55 -14 0 -25 2 -25 4 0 13 51 116
57 116 5 0 18 -3 31 -6z m910 -40 c26 -18 27 -27 6 -48 -17 -18 -61 -21 -84
-6 -13 8 -12 12 8 25 12 9 22 23 22 31 0 18 20 18 48 -2z m-1688 -6 c-56 -16
-63 -37 -24 -73 18 -17 25 -32 22 -52 -3 -27 -4 -28 -68 -29 l-65 -1 60 6 c51
5 60 9 63 27 2 14 -6 27 -22 38 -39 25 -33 78 9 89 38 9 60 5 25 -5z m382 -98
c-29 -3 -90 -3 -135 0 -69 6 -61 7 53 6 82 0 114 -2 82 -6z"/>
<path d="M2335 560 c28 -12 37 -12 30 0 -3 6 -16 10 -28 9 -21 0 -21 -1 -2 -9z"/>
<path d="M637 613 c-35 -51 -37 -93 -3 -93 46 0 73 73 43 114 -12 16 -15 15
-40 -21z"/>
<path d="M1656 524 c-4 -12 -15 -15 -37 -12 -31 5 -31 4 -25 -31 3 -20 6 -44
6 -53 0 -10 9 -22 21 -28 36 -20 59 12 59 82 0 56 -11 75 -24 42z m-7 -71 c0
-5 -4 -17 -9 -28 -8 -18 -9 -17 -9 8 -1 15 4 27 9 27 6 0 10 -3 9 -7z"/>
<path d="M1826 504 c-10 -40 2 -80 29 -94 31 -17 36 -12 42 45 5 39 3 45 -12
45 -10 0 -26 7 -36 15 -15 15 -17 14 -23 -11z"/>
<path d="M2050 560 c0 -13 5 -20 13 -17 6 2 12 10 12 17 0 7 -6 15 -12 18 -8
2 -13 -5 -13 -18z"/>
<path d="M961 554 c0 -11 3 -14 6 -6 3 7 2 16 -1 19 -3 4 -6 -2 -5 -13z"/>
<path d="M961 444 c0 -11 3 -14 6 -6 3 7 2 16 -1 19 -3 4 -6 -2 -5 -13z"/>
<path d="M1100 550 c0 -5 5 -10 10 -10 6 0 10 5 10 10 0 6 -4 10 -10 10 -5 0
-10 -4 -10 -10z"/>
<path d="M2160 482 c0 -21 -5 -43 -12 -50 -9 -9 -7 -12 8 -12 11 0 30 11 43
23 19 21 20 25 6 37 -8 7 -15 19 -15 26 0 8 -7 14 -15 14 -11 0 -15 -11 -15
-38z"/>
<path d="M2050 435 c0 -8 9 -15 20 -15 13 0 18 5 14 15 -4 8 -12 15 -20 15 -8
0 -14 -7 -14 -15z"/>
<path d="M1389 419 c-17 -34 -18 -43 -7 -50 19 -13 28 -11 28 6 0 8 9 20 20
27 24 15 26 43 4 52 -23 9 -22 10 -45 -35z"/>
<path d="M2304 405 c-14 -29 -11 -34 21 -27 27 5 32 21 13 40 -17 17 -21 15
-34 -13z"/>
<path d="M2001 776 c2 -2 20 -6 39 -10 25 -4 31 -3 20 4 -14 9 -69 15 -59 6z"/>
<path d="M2105 770 c27 -12 43 -12 25 0 -8 5 -22 9 -30 9 -10 0 -8 -3 5 -9z"/>
<path d="M1478 713 c7 -3 16 -2 19 1 4 3 -2 6 -13 5 -11 0 -14 -3 -6 -6z"/>
<path d="M1418 703 c6 -2 18 -2 25 0 6 3 1 5 -13 5 -14 0 -19 -2 -12 -5z"/>
</g>
</svg>
